<svg width="48" height="48" viewBox="0 0 48 48" fill="none" xmlns="http://www.w3.org/2000/svg">
<g clip-path="url(#clip0_7_216)">
<path fill-rule="evenodd" clip-rule="evenodd" d="M8 24C8 32.8352 15.1648 40 24 40C32.8352 40 40 32.8352 40 24C40 15.1648 32.8352 8 24 8C15.1648 8 8 15.1648 8 24ZM28.4128 15.1105C27.2608 15.0561 26.9152 15.0465 24 15.0465C21.0848 15.0465 20.7392 15.0561 19.5872 15.1105C18.5216 15.1617 17.9424 15.3377 17.5584 15.4881C17.0496 15.6865 16.6848 15.9233 16.304 16.3041C15.9232 16.6849 15.6864 17.0497 15.488 17.5585C15.3376 17.9425 15.1584 18.5217 15.1104 19.5873C15.056 20.7393 15.0464 21.0848 15.0464 24C15.0464 26.9152 15.0592 27.2609 15.1104 28.4128C15.1616 29.4785 15.3376 30.0576 15.488 30.4416C15.6864 30.9504 15.9232 31.3152 16.304 31.696C16.6848 32.0768 17.0496 32.3136 17.5584 32.512C17.9424 32.6624 18.5216 32.8416 19.5872 32.8896C20.7392 32.944 21.0848 32.9536 24 32.9536C26.9152 32.9536 27.2608 32.9408 28.4128 32.8896C29.4784 32.8384 30.0576 32.6624 30.4416 32.512C30.9504 32.3136 31.3152 32.0768 31.696 31.696C32.0768 31.3152 32.3136 30.9504 32.512 30.4416C32.6624 30.0576 32.8416 29.4785 32.8896 28.4128C32.944 27.2609 32.9536 26.9152 32.9536 24C32.9536 21.0848 32.9408 20.7393 32.8896 19.5873C32.8384 18.5217 32.6624 17.9425 32.512 17.5585C32.3136 17.0497 32.0768 16.6849 31.696 16.3041C31.3152 15.9233 30.9504 15.6865 30.4416 15.4881C30.0576 15.3377 29.4784 15.1585 28.4128 15.1105ZM19.4976 13.1457C20.6624 13.0913 21.0336 13.0785 24 13.0785C26.9664 13.0785 27.3376 13.0913 28.4992 13.1425C29.664 13.1969 30.4576 13.3825 31.152 13.6513C31.872 13.9329 32.48 14.3041 33.088 14.9121C33.696 15.5169 34.0704 16.128 34.3488 16.8417C34.6208 17.5393 34.8032 18.3329 34.8576 19.4945C34.912 20.6593 34.9248 21.0305 34.9248 23.9969C34.9248 26.9632 34.912 27.3344 34.8576 28.4992C34.8032 29.664 34.6176 30.4576 34.3488 31.152C34.0672 31.872 33.696 32.48 33.088 33.088C32.4832 33.696 31.872 34.0704 31.1584 34.3489C30.4608 34.6208 29.6672 34.8032 28.5056 34.8576C27.3408 34.912 26.9696 34.9249 24.0032 34.9249C21.0368 34.9249 20.6656 34.912 19.5008 34.8576C18.336 34.8032 17.5424 34.6176 16.848 34.3489C16.128 34.0672 15.52 33.696 14.912 33.088C14.304 32.4832 13.9296 31.872 13.6512 31.1584C13.3792 30.4608 13.1968 29.6672 13.1424 28.5056C13.088 27.3408 13.0752 26.9697 13.0752 24.0033C13.0752 21.0369 13.088 20.6657 13.1424 19.5008C13.1968 18.3361 13.3824 17.5425 13.6512 16.8481C13.9328 16.1281 14.304 15.5201 14.912 14.9121C15.5168 14.3041 16.128 13.9297 16.8448 13.6545C17.5424 13.3825 18.336 13.2001 19.4976 13.1457ZM24 18.3905C20.9024 18.3905 18.3904 20.9025 18.3904 24.0001C18.3904 27.0977 20.9024 29.6097 24 29.6097C27.0976 29.6097 29.6096 27.0977 29.6096 24.0001C29.6096 20.9025 27.0976 18.3905 24 18.3905ZM24 27.6417C21.9904 27.6417 20.3584 26.0129 20.3584 24.0001C20.3584 21.9873 21.9904 20.3585 24 20.3585C26.0096 20.3585 27.6416 21.9873 27.6416 24.0001C27.6416 26.0129 26.0096 27.6417 24 27.6417ZM31.1424 18.1697C31.1424 18.8942 30.555 19.4817 29.8304 19.4817C29.1058 19.4817 28.5184 18.8942 28.5184 18.1697C28.5184 17.4451 29.1058 16.8576 29.8304 16.8576C30.555 16.8576 31.1424 17.4451 31.1424 18.1697Z" fill="white"/>
</g>
<defs>
<clipPath id="clip0_7_216">
<rect width="32" height="32" fill="white" transform="translate(8 8)"/>
</clipPath>
</defs>
</svg>
