<svg width="48" height="48" viewBox="0 0 48 48" fill="none" xmlns="http://www.w3.org/2000/svg">
<g clip-path="url(#clip0_7_207)">
<path d="M24 8C15.164 8 8 15.164 8 24C8 32.836 15.164 40 24 40C32.836 40 40 32.836 40 24C40 15.162 32.836 8 24 8ZM31.96 20.408L31.972 20.918C31.972 26.126 28.01 32.126 20.764 32.126C18.54 32.126 16.4699 31.474 14.726 30.356C15.034 30.3919 15.3479 30.4119 15.666 30.4119C17.512 30.4119 19.21 29.7819 20.558 28.7259C18.834 28.694 17.38 27.5539 16.878 25.99C17.12 26.036 17.364 26.058 17.62 26.058C17.98 26.058 18.3279 26.012 18.6579 25.922C16.8559 25.558 15.498 23.968 15.498 22.06V22.01C16.0299 22.306 16.6359 22.482 17.2819 22.5041C16.2259 21.7981 15.5299 20.592 15.5299 19.226C15.5299 18.5041 15.7239 17.8281 16.0619 17.2461C18.0039 19.6301 20.9079 21.198 24.1819 21.3621C24.1139 21.074 24.0799 20.7721 24.0799 20.4641C24.0799 18.2901 25.8439 16.5261 28.0199 16.5261C29.1519 16.5261 30.176 17.004 30.8959 17.77C31.7919 17.592 32.6359 17.264 33.3979 16.814C33.1039 17.734 32.4799 18.506 31.6659 18.994C32.4599 18.9 33.2219 18.686 33.9279 18.374C33.4 19.162 32.7299 19.856 31.96 20.408Z" fill="white"/>
</g>
<defs>
<clipPath id="clip0_7_207">
<rect width="32" height="32" fill="white" transform="translate(8 8)"/>
</clipPath>
</defs>
</svg>
